<svg xmlns="http://www.w3.org/2000/svg" width="42" height="42" viewBox="0 0 42 42">
    <defs>
        <clipPath id="prefix__clip-path">
            <path id="prefix__icon_alert_notification_important_24px" d="M8.163 19.5a1.807 1.807 0 01-1.805-1.805h3.61A1.807 1.807 0 018.163 19.5zm8.163-2.722H0v-.906l1.814-1.814V8.617A6.342 6.342 0 016.8 2.422V1.361a1.36 1.36 0 112.721 0v1.061a6.342 6.342 0 014.989 6.195v5.441l1.814 1.814v.905z" data-name="icon/alert/notification_important_24px" transform="translate(11.837 9)" style="fill:#fff"/>
        </clipPath>
        <style>
        </style>
    </defs>
    <g id="prefix__banner_alarm" transform="translate(1 1)">
        <circle id="prefix__Oval" cx="20" cy="20" r="20" style="fill:none;stroke:#fc5356;stroke-width:2px"/>
        <path id="prefix__icon_alert_notification_important_24px-2" d="M8.163 19.5a1.807 1.807 0 01-1.805-1.805h3.61A1.807 1.807 0 018.163 19.5zm8.163-2.722H0v-.906l1.814-1.814V8.617A6.342 6.342 0 016.8 2.422V1.361a1.36 1.36 0 112.721 0v1.061a6.342 6.342 0 014.989 6.195v5.441l1.814 1.814v.905z" data-name="icon/alert/notification_important_24px" transform="translate(11.837 9)" style="fill:#fc5356"/>
    </g>
</svg>
